<svg width="100" height="100" viewBox="0 0 100 100" fill="none" xmlns="http://www.w3.org/2000/svg">
  <!-- Flame Base -->
  <path d="M50 10C50 10 65 25 65 40C65 47.5 60 55 50 55C40 55 35 47.5 35 40C35 25 50 10 50 10Z" fill="url(#flameGradient)"/>
  
  <!-- Flame Glow -->
  <path d="M50 15C50 15 62.5 27.5 62.5 40C62.5 46.25 58.75 52.5 50 52.5C41.25 52.5 37.5 46.25 37.5 40C37.5 27.5 50 15 50 15Z" fill="url(#flameGlowGradient)" opacity="0.7"/>
  
  <!-- Flame Inner -->
  <path d="M50 25C50 25 57.5 35 57.5 42.5C57.5 46.25 55 50 50 50C45 50 42.5 46.25 42.5 42.5C42.5 35 50 25 50 25Z" fill="#FFF5F0" opacity="0.9"/>
  
  <!-- Flame Base -->
  <path d="M30 45C30 45 35 55 50 55C65 55 70 45 70 45C70 65 60 80 50 90C40 80 30 65 30 45Z" fill="url(#flameBaseGradient)"/>
  
  <!-- Gradient Definitions -->
  <defs>
    <linearGradient id="flameGradient" x1="50" y1="10" x2="50" y2="55" gradientUnits="userSpaceOnUse">
      <stop offset="0" stop-color="#FFDD00"/>
      <stop offset="1" stop-color="#FF6B00"/>
    </linearGradient>
    
    <radialGradient id="flameGlowGradient" cx="50" cy="35" r="25" gradientUnits="userSpaceOnUse">
      <stop offset="0" stop-color="#FFDD00"/>
      <stop offset="1" stop-color="#FF6B00"/>
    </radialGradient>
    
    <linearGradient id="flameBaseGradient" x1="50" y1="45" x2="50" y2="90" gradientUnits="userSpaceOnUse">
      <stop offset="0" stop-color="#FF6B00"/>
      <stop offset="1" stop-color="#FF3300"/>
    </linearGradient>
  </defs>
</svg>